<?xml version="1.0" encoding="UTF-8" standalone="no"?>
<!-- Created with Inkscape (http://www.inkscape.org/) -->

<svg
   width="178.66368mm"
   height="159.55348mm"
   viewBox="0 0 178.66368 159.55348"
   version="1.1"
   id="svg5"
   inkscape:version="1.1.1 (c3084ef, 2021-09-22)"
   sodipodi:docname="logo.svg"
   inkscape:export-filename="/Users/dylandoamaral/Projects/uptime-card/static/img/docusaurus.png"
   inkscape:export-xdpi="96"
   inkscape:export-ydpi="96"
   xmlns:inkscape="http://www.inkscape.org/namespaces/inkscape"
   xmlns:sodipodi="http://sodipodi.sourceforge.net/DTD/sodipodi-0.dtd"
   xmlns="http://www.w3.org/2000/svg"
   xmlns:svg="http://www.w3.org/2000/svg">
  <sodipodi:namedview
     id="namedview7"
     pagecolor="#ffffff"
     bordercolor="#999999"
     borderopacity="1"
     inkscape:pageshadow="0"
     inkscape:pageopacity="0"
     inkscape:pagecheckerboard="0"
     inkscape:document-units="mm"
     showgrid="false"
     inkscape:zoom="0.65684685"
     inkscape:cx="39.583048"
     inkscape:cy="258.81223"
     inkscape:window-width="1728"
     inkscape:window-height="1080"
     inkscape:window-x="0"
     inkscape:window-y="37"
     inkscape:window-maximized="0"
     inkscape:current-layer="layer1" />
  <defs
     id="defs2">
    <inkscape:path-effect
       effect="fillet_chamfer"
       id="path-effect1058"
       is_visible="true"
       lpeversion="1"
       satellites_param="F,0,0,1,0,0,0,1 @ F,0,0,1,0,0,0,1 @ F,0,0,1,0,0,0,1 @ F,0,0,1,0,0,0,1"
       unit="px"
       method="auto"
       mode="F"
       radius="0"
       chamfer_steps="1"
       flexible="false"
       use_knot_distance="true"
       apply_no_radius="true"
       apply_with_radius="true"
       only_selected="false"
       hide_knots="false" />
  </defs>
  <g
     inkscape:groupmode="layer"
     id="layer1"
     inkscape:label="Test3"
     style="display:inline"
     transform="translate(42.613291,78.602854)">
    <g
       id="g2534"
       transform="matrix(6.3809181,0,0,6.3809181,-55.378173,-100.93727)">
      <path
         id="path2522"
         style="fill:#3dbcf3;fill-rule:evenodd;stroke-width:24.1169"
         d="m 177.56055,-297.05273 a 19.751705,19.751705 0 0 0 -15.22266,5.94726 L -156.48828,35.556641 a 16.11006,16.11006 0 0 0 11.33594,27.349609 h 59.181637 v 229.51953 a 13.336621,13.336621 0 0 0 13.265625,13.5293 H 425.62109 a 13.336621,13.336621 0 0 0 13.24024,-13.4082 V 63.027344 h 59.42383 a 15.844774,15.844774 0 0 0 11.14257,-4.582032 16.18241,16.18241 0 0 0 0.24024,-22.71875 L 438.8125,-37.492188 V -152.77148 a 13.336621,13.336621 0 0 0 -13.24023,-13.40821 h -55.27539 a 13.336621,13.336621 0 0 0 -13.26368,13.40821 v 31.35156 l -166.40625,-169.70899 -0.16992,-0.16992 a 19.751705,19.751705 0 0 0 -12.89648,-5.7539 z"
         transform="matrix(0.04146478,0,0,0.04146478,8.6787155,15.818612)" />
    </g>
  </g>
  <g
     inkscape:label="Test2"
     inkscape:groupmode="layer"
     id="g1197"
     transform="translate(-1.5855962,12.097986)">
    <g
       id="g2906"
       transform="translate(-1.0343613)">
      <rect
         style="fill:#ffffff;fill-opacity:1;stroke-width:0.309445"
         id="rect2718"
         width="111.69997"
         height="78.747475"
         x="36.102009"
         y="60.796642"
         ry="5.2834067" />
      <path
         style="fill:#45c669;fill-opacity:1;stroke-width:0.264583"
         id="path1191"
         width="28.502094"
         height="67.331024"
         x="44.198887"
         y="66.504868"
         sodipodi:type="rect"
         ry="4.5174389"
         d="m 48.716326,66.504868 h 19.467216 c 2.502661,0 4.517439,2.014777 4.517439,4.517438 v 58.296144 c 0,2.50266 -2.014778,4.51744 -4.517439,4.51744 H 48.716326 c -2.502661,0 -4.517439,-2.01478 -4.517439,-4.51744 V 71.022306 c 0,-2.502661 2.014778,-4.517438 4.517439,-4.517438 z" />
      <path
         style="fill:#c6b145;fill-opacity:1;stroke-width:0.264583"
         id="path1191-5"
         width="28.502094"
         height="67.331024"
         x="77.701004"
         y="66.504868"
         sodipodi:type="rect"
         ry="4.5174389"
         d="m 82.218443,66.504868 h 19.467217 c 2.50266,0 4.51744,2.014777 4.51744,4.517438 v 58.296144 c 0,2.50266 -2.01478,4.51744 -4.51744,4.51744 H 82.218443 c -2.502661,0 -4.517439,-2.01478 -4.517439,-4.51744 V 71.022306 c 0,-2.502661 2.014778,-4.517438 4.517439,-4.517438 z" />
      <path
         style="fill:#c66445;fill-opacity:1;stroke-width:0.264583"
         id="path1191-4"
         width="28.502094"
         height="67.331024"
         x="111.203"
         y="66.504868"
         sodipodi:type="rect"
         ry="4.5174389"
         d="m 115.72044,66.504868 h 19.46722 c 2.50266,0 4.51744,2.014777 4.51744,4.517438 v 58.296144 c 0,2.50266 -2.01478,4.51744 -4.51744,4.51744 h -19.46722 c -2.50266,0 -4.51744,-2.01478 -4.51744,-4.51744 V 71.022306 c 0,-2.502661 2.01478,-4.517438 4.51744,-4.517438 z" />
    </g>
  </g>
</svg>
